<svg id="e3f3dd9e-e2c4-46fb-8c07-a08afb8fcc66" data-name="Layer 1" xmlns="http://www.w3.org/2000/svg" xmlns:xlink="http://www.w3.org/1999/xlink" viewBox="0 0 373.86 291.55">
  <defs>
    <clipPath id="f5f1f9bf-6b15-4e64-9815-baf9e2441037" transform="translate(-0.63 -79.28)">
      <polygon points="184.41 291.74 189.55 295.37 240.77 273.98 184.41 291.74" style="fill: none"/>
    </clipPath>
    <linearGradient id="bb9452ba-ad98-4c98-a155-dc1f51c226c7" x1="-893.43" y1="-132.78" x2="-893.11" y2="-132.78" gradientTransform="matrix(134.06, -65.57, -65.57, -134.06, 111256.92, -76169.94)" gradientUnits="userSpaceOnUse">
      <stop offset="0" stop-color="#f8d42c"/>
      <stop offset="1" stop-color="#fa450b"/>
    </linearGradient>
    <clipPath id="ea5bf253-bffe-40cb-ae1a-3f49e4d79773" transform="translate(-0.63 -79.28)">
      <polygon points="231.25 279.79 196.5 300.98 201.19 303.92 212.23 310.83 236.15 279.94 240.77 273.98 231.25 279.79" style="fill: none"/>
    </clipPath>
    <linearGradient id="e0f90405-3946-4a46-bc0d-cc899253577a" x1="-893.43" y1="-132.65" x2="-893.11" y2="-132.65" gradientTransform="matrix(134.06, -65.57, -65.57, -134.06, 111270, -76143.2)" xlink:href="#bb9452ba-ad98-4c98-a155-dc1f51c226c7"/>
  </defs>
  <title>intro4-1</title>
  <g>
    <g style="opacity: 0.699999988079071">
      <path d="M28.29,370.28s-50.54-65.22,2.17-122C89,185.17,33.69,114.57,92.05,89.43c82.3-35.44,97.05,34.66,189.21,17.28,77-14.51,75.32,98.88,52.58,139.34C315,279.6,387.66,296.23,350.46,370.12Z" transform="translate(-0.63 -79.28)" style="fill: #efc9f7"/>
    </g>
    <g>
      <g style="opacity: 0.30000001192092896">
        <path d="M219.48,195.9s8-38.84,38.56-44c0,0,5.95-.91,8.13,5.61s-9.7,6.91-17,9.77S225.16,181.88,219.48,195.9Z" transform="translate(-0.63 -79.28)" style="fill: #cb07f4"/>
      </g>
      <g style="opacity: 0.30000001192092896">
        <path d="M218.57,188.7s-4.12-31.86,18-43.85a6.14,6.14,0,0,1,7.71,2.16c3.39,4.42-5.61,7.85-10.42,12S219.23,176.46,218.57,188.7Z" transform="translate(-0.63 -79.28)" style="fill: #cb07f4"/>
      </g>
    </g>
    <path d="M94.56,177c3.74-10.66,21.84-5.91,21.84-5.91s11.06,19.94,14.65,20.66-6.12-18.9-6.12-18.9c7.07-.16,24.33,9.76,24.33,9.76s-2.77,22.11.89,21.93,1.45-19.71,1.45-19.71c6.65,2.54,12.4,10.93,12.4,10.93,7,13.49-10.71,21.76-10.71,21.76a36.32,36.32,0,0,0,3.31,16.87h0a26.61,26.61,0,0,1,1.84,4.56l-1.85-.14c-.11-.51-.25-1-.4-1.47h0v0l-.45-1.23h0c-.48-1.15-.81-2-1-2.6h0c-1.44-3.6-3.55-8.31-5.11-9.38a3.36,3.36,0,0,0,.46-.82l-.46.82c-3.67,6.56-19.61,6.53-28.31,4.06s-4.67-4.67.39-8.36,14.94-1.89,18-3.26-1.13-3.27-7-3.25-9.3,5.69-18.88,5.9S98.26,201,98.26,201c6.42,2.52,18.46-.23,19.08-2.47s-16.84-3.29-19.51-4.17S90.81,187.7,94.56,177Z" transform="translate(-0.63 -79.28)" style="fill: #cb07f4"/>
    <path d="M66.82,344.53c-6.56-11.44,11.45-23.82,11.45-23.82s26.07,5.45,29.44,2.82-21.38-9-21.38-9c5.25-6.38,27.2-14.06,27.2-14.06s17.44,19.32,20.06,16-16.31-16.32-16.31-16.32c7.32-3.94,19.13-2.62,19.13-2.62,17.25,4.13,11.06,26.07,11.06,26.07a42.32,42.32,0,0,0,17.44,9.95h0a30.3,30.3,0,0,1,5.44,1.86l-1.53,1.53a16.82,16.82,0,0,0-1.61-.77h0l-1.43-.54h0c-1.39-.45-2.38-.81-3.07-1.1h0c-4.28-1.48-10.06-3.21-12.19-2.65a4.3,4.3,0,0,0-.37-1l.37,1c3,8.25-9.2,22.32-18,28.13s-7.69.56-7.1-6.73,9.73-14.65,10.86-18.4-3.75-1.5-8.25,3.75-2.07,12.56-9.2,21.19-27.94-.2-27.94-.2c7.13-3.75,13.88-16.5,12.38-18.75s-15.76,12.37-18.57,14.06S73.38,356,66.82,344.53Z" transform="translate(-0.63 -79.28)" style="fill: #cb07f4"/>
    <path d="M318.06,192c-1.27-11.86-21-11.35-21-11.35S280.85,198.43,277,198.3s10.87-17.94,10.87-17.94c-7.23-1.88-27.37,4.15-27.37,4.15s-2.5,23.4-6.22,22.32,3.27-20.61,3.27-20.61c-7.44,1-15.39,8.24-15.39,8.24-10.44,12.18,5.75,25,5.75,25A38.21,38.21,0,0,1,240.41,236h0a28.52,28.52,0,0,0-3,4.24l1.94.31c.24-.49.49-1,.76-1.42h0s0,0,0,0l.76-1.15h0c.78-1.06,1.31-1.86,1.66-2.43h0c2.35-3.36,5.66-7.69,7.52-8.41a3.63,3.63,0,0,1-.27-.95c.09.3.18.62.27.95,2.19,7.63,18.58,11.45,28.12,11s5.93-3.67,1.62-8.69-14.9-5.56-17.72-7.71,2-3.09,8-1.64,8.18,8.1,18,10.63,20.35-15,20.35-15c-7.21,1-18.92-4.71-19-7.15s18.1.69,21.06.43S319.34,203.81,318.06,192Z" transform="translate(-0.63 -79.28)" style="fill: #cb07f4"/>
    <path d="M328.44,336.21c13.08-10.74-2.88-33.78-2.88-33.78s-33.75-5.34-36.61-10,29.75-1.07,29.75-1.07c-3.4-10-26.22-29.26-26.22-29.26s-29.72,15.23-31.33,10,27-12.15,27-12.15c-7-8.06-21.76-11.86-21.76-11.86-22.58-2.91-25.14,26.24-25.14,26.24s-10.41,5.06-25.45,4h0a38.87,38.87,0,0,0-7.37-.25l1.14,2.54c.77-.1,1.53-.17,2.28-.2h2c1.87.09,3.22.11,4.18.08h0c5.81.18,13.53.73,15.83,2.38a5.45,5.45,0,0,1,.92-1.07l-.92,1.07c-7.36,8.53.86,31,8.79,41.95s9,4.18,11.58-4.84-5-22-4.64-27,5.18-.09,8.19,8.26-3.25,16,1.38,29.61,33.61,12.5,33.61,12.5c-6.84-7.74-9.14-26.12-6.31-28.14s13.27,22,15.87,25.33S315.35,347,328.44,336.21Z" transform="translate(-0.63 -79.28)" style="fill: #cb07f4"/>
    <g id="a7f5d530-4f19-4d2d-8ecd-ceb6ca042087" data-name="man">
      <g>
        <path d="M127.32,255.65c-.62,1.67-1.7,3.61-2.83,4.09a4.46,4.46,0,0,0-1.82,1.32l-1-.6-1.24-.72s0-.14.09-.36.15-.53.28-.88a1.2,1.2,0,0,0,.15-1.1,2.54,2.54,0,0,1,.21-2.13c.4-.58.78-2,1-2,.58.1-.28,2.05,0,2.41a.43.43,0,0,0,.56.19h0c1.62-.71,3.59-4.55,4.46-4C127.45,252.08,127.58,254.94,127.32,255.65Z" transform="translate(-0.63 -79.28)" style="fill: #fff"/>
        <path d="M122.67,261.15h0l-2.27-1.32a.09.09,0,0,1,0-.09s0-.14.09-.37.14-.49.28-.88v0a1.1,1.1,0,0,0,.13-1,2.63,2.63,0,0,1,.22-2.21,7.25,7.25,0,0,0,.5-1c.27-.67.42-1,.61-.95a.26.26,0,0,1,.19.13c.16.24.05.77-.07,1.33s-.19.87-.1,1a.34.34,0,0,0,.45.16,8.58,8.58,0,0,0,2.36-2.3c.89-1.1,1.67-2.05,2.19-1.74s.49,3.15.22,3.87l-.08,0,.08,0c-.62,1.67-1.7,3.64-2.87,4.14a4.38,4.38,0,0,0-1.78,1.29A.09.09,0,0,1,122.67,261.15Zm-2.17-1.45,2.15,1.25a4.57,4.57,0,0,1,1.8-1.28c1.12-.48,2.2-2.48,2.78-4h0a8.43,8.43,0,0,0-.15-3.67c-.39-.23-1.19.75-2,1.7A8.48,8.48,0,0,1,122.7,256a.52.52,0,0,1-.67-.21c-.13-.18,0-.62.08-1.12s.22-1,.1-1.2a.09.09,0,0,0-.08-.05,3.27,3.27,0,0,0-.42.84,6,6,0,0,1-.51,1.07,2.45,2.45,0,0,0-.2,2,1.27,1.27,0,0,1-.15,1.17,8.82,8.82,0,0,0-.27.86C120.54,259.54,120.52,259.64,120.5,259.7Z" transform="translate(-0.63 -79.28)" style="fill: #1a2e35"/>
      </g>
      <g>
        <path d="M121.71,258l2,1.43a.31.31,0,0,0,.44-.08l5.2-7.4a.31.31,0,0,0-.08-.44l-2-1.43a.31.31,0,0,0-.44.08l-5.2,7.4A.32.32,0,0,0,121.71,258Z" transform="translate(-0.63 -79.28)" style="fill: #1a2e35"/>
        <path d="M123.57,259.29l1.19.84a.24.24,0,0,0,.34-.06l5.29-7.52a.24.24,0,0,0-.06-.34l-1.19-.84a.24.24,0,0,0-.34.06L123.51,259A.23.23,0,0,0,123.57,259.29Z" transform="translate(-0.63 -79.28)" style="fill: #1a2e35"/>
      </g>
      <path d="M92.58,247.36s10.33,18,14.08,21.33l13.74-10.25a5,5,0,0,1,2.87,2.61s-8.35,17-16.56,17.72S87,258.39,87,258.39Z" transform="translate(-0.63 -79.28)" style="fill: #8eaff1"/>
      <g>
        <path d="M69.2,369.92h-6a3.62,3.62,0,0,1-1.63-2.74c-.29-1.92-2.45-3-2.91-4.54s1.92-3.79,1.92-3.79l.4-.52.42-.53,4,.93s.1.94.16,2.15c0,.87.07,1.87,0,2.75-.12,2.1.59,4.36,2.45,4.76C69.39,368.69,69.33,369.51,69.2,369.92Z" transform="translate(-0.63 -79.28)" style="fill: #1a2e35"/>
        <path d="M103.85,369.92H90.19c-.66-.8-.41-3.76-.32-4.72,0-.19,0-.31,0-.31s4.66-3.73,5.3-.87a2,2,0,0,0,.07.26c.81,2.67,4.43,3.88,6.51,4.22A2.39,2.39,0,0,1,103.85,369.92Z" transform="translate(-0.63 -79.28)" style="fill: #1a2e35"/>
        <g>
          <path d="M101.24,293.72s-.71,8.83-1.54,19.45c-1.13,14.42-2.49,32.13-2.63,35.49-.23,5.83-1.17,15.15-1.17,15.15s-2.21,2.21-6.64,1.28a152,152,0,0,1-5.07-27.38c0-.23,0-.46,0-.7-1-14.33-2.68-44.51-2.68-44.51Z" transform="translate(-0.63 -79.28)" style="fill: #fff"/>
          <path d="M91.37,365.4a10.36,10.36,0,0,1-2.11-.23.11.11,0,0,1-.07-.06,154.21,154.21,0,0,1-5.08-27.4l0-.7c-1-14.17-2.66-44.21-2.68-44.51a.11.11,0,0,1,0-.07.06.06,0,0,1,.07,0l19.78,1.22a.09.09,0,0,1,.06,0,.07.07,0,0,1,0,.06c0,.09-.72,8.95-1.54,19.45-.92,11.71-2.48,31.9-2.62,35.49C97,354.42,96,363.72,96,363.81a.08.08,0,0,1,0,.05A6.87,6.87,0,0,1,91.37,365.4Zm-2-.39c4.07.84,6.25-1,6.49-1.25.06-.61.94-9.52,1.16-15.11.14-3.59,1.71-23.78,2.63-35.49.78-9.94,1.46-18.41,1.53-19.36l-19.59-1.21c.1,1.9,1.67,30.65,2.67,44.41l0,.7A154.11,154.11,0,0,0,89.34,365Z" transform="translate(-0.63 -79.28)" style="fill: #1a2e35"/>
        </g>
        <path d="M101.24,293.72s-.71,8.83-1.54,19.45L84.2,337.7c0-.23,0-.46,0-.7-1.05-14.33-2.68-44.51-2.68-44.51Z" transform="translate(-0.63 -79.28)" style="fill: #dbdbdb"/>
        <g>
          <path d="M98,294.77s-12.76,32-21.15,47-11,19.22-11,19.22-4.81-1.92-5.24-3.23c0,0,3.21-29,8.83-36.09,3.17-4,6.9-16,7.08-20.19S77.66,289,77.66,289Z" transform="translate(-0.63 -79.28)" style="fill: #fff"/>
          <path d="M65.85,361.09h0c-.2-.08-4.85-1.95-5.29-3.29,0,0,0,0,0,0,0-.29,3.28-29.12,8.84-36.13,3.19-4,6.89-16,7.06-20.14s1.13-12.42,1.14-12.5a.07.07,0,0,1,0-.06.09.09,0,0,1,.07,0L98,294.68a.08.08,0,0,1,0,.05.09.09,0,0,1,0,.07c-.13.32-12.86,32.16-21.15,47s-11,19.19-11,19.23A.09.09,0,0,1,65.85,361.09Zm-5.15-3.33c.43,1.18,4.54,2.9,5.12,3.14.35-.57,3.21-5.25,11-19.16,8.07-14.46,20.35-45,21.11-46.91l-20.17-5.71c-.11,1-1,8.49-1.12,12.39-.17,4.17-3.89,16.2-7.1,20.24C64,328.64,60.8,356.87,60.7,357.76Z" transform="translate(-0.63 -79.28)" style="fill: #1a2e35"/>
        </g>
      </g>
      <g>
        <path d="M94.84,248.14c-5,1.57-13.61-2.67-13.61-2.67a13,13,0,0,0,4.36-10.62L89.44,238l2.62,2.11a30.76,30.76,0,0,1-.3,3.42A5,5,0,0,0,92.89,246C94.4,248,94.84,248.14,94.84,248.14Z" transform="translate(-0.63 -79.28)" style="fill: #fff"/>
        <path d="M92.3,248.58c-4.9,0-11-3-11.12-3a.08.08,0,0,1-.05-.07.11.11,0,0,1,0-.08,13,13,0,0,0,4.32-10.55.09.09,0,0,1,0-.08.07.07,0,0,1,.09,0L92.09,240a.09.09,0,0,1,0,.07,30.27,30.27,0,0,1-.3,3.43A4.87,4.87,0,0,0,92.93,246a8.79,8.79,0,0,0,1.92,2.08.1.1,0,0,1,.05.08.09.09,0,0,1-.06.08A8.21,8.21,0,0,1,92.3,248.58Zm-10.92-3.13c1.06.5,8.66,4,13.26,2.66a13.06,13.06,0,0,1-1.82-2,5.13,5.13,0,0,1-1.15-2.61c.25-1.93.29-3.14.3-3.37L85.68,235A13.26,13.26,0,0,1,81.38,245.45Z" transform="translate(-0.63 -79.28)" style="fill: #1a2e35"/>
      </g>
      <g>
        <path d="M93.58,240s-8.24,1.37-9-3.77-2.36-8.43,2.87-9.52,6.54.72,7.22,2.37S95.7,239.46,93.58,240Z" transform="translate(-0.63 -79.28)" style="fill: #fff"/>
        <path d="M91.27,240.19a9.13,9.13,0,0,1-5.15-1.28,4,4,0,0,1-1.64-2.72c-.12-.78-.25-1.51-.38-2.22-.72-3.89-1.19-6.45,3.32-7.4,5.14-1.07,6.58.62,7.32,2.42.57,1.4,1,7.87-.26,10.22a1.44,1.44,0,0,1-.88.82h0A15,15,0,0,1,91.27,240.19Zm-1-13.78a13.79,13.79,0,0,0-2.8.33c-4.35.91-3.91,3.27-3.18,7.2.13.71.27,1.44.38,2.23a3.78,3.78,0,0,0,1.57,2.61c2.53,1.84,7.2,1.11,7.34,1.09a1.27,1.27,0,0,0,.76-.73c1.17-2.26.81-8.73.26-10.07S93.05,226.41,90.25,226.41ZM93.58,240Z" transform="translate(-0.63 -79.28)" style="fill: #1a2e35"/>
      </g>
      <path d="M101.79,294.46a.82.82,0,0,1-.52.2c-1.87,0-7.33,1-12,.54a34.31,34.31,0,0,1-11-3.19c-.49-.22-1.62-.82-1.6-1.37s.08-1.47.15-2.57a137.19,137.19,0,0,0,.27-18c-.08-1.41-.12-2.81-.13-4.19,0-10.28,2-19.31,6.09-22.37.35-.25,2.5.8,4.47,1.77a8.16,8.16,0,0,0,5.37.65l1.72,1.52a17.2,17.2,0,0,1,5.39,8.61c.85,3.42,1.35,9.59,1.62,16,.12,2.9.23,5.82.25,8.59v.1c0,.27,0,.58,0,.85C102,288.71,101.92,294.36,101.79,294.46Z" transform="translate(-0.63 -79.28)" style="fill: #a9c2ff"/>
      <path d="M76.83,288.06a137.19,137.19,0,0,0,.27-18c-.08-1.41-.12-2.81-.13-4.19,1.71-4.14,3.1-7.14,3.1-7.14h4.3S87.53,280.29,76.83,288.06Z" transform="translate(-0.63 -79.28)" style="fill: #8eaff1"/>
      <g>
        <path d="M54.81,312.46l18.33,2.61a4.39,4.39,0,0,0,5-3.72l1.13-8a4.39,4.39,0,0,0-3.72-5l-18.33-2.61a4.39,4.39,0,0,0-5,3.72l-1.13,7.95A4.39,4.39,0,0,0,54.81,312.46Z" transform="translate(-0.63 -79.28)" style="fill: #1a2e35"/>
        <path d="M76.55,300.82h0a4.41,4.41,0,0,0-3-2.65h0l-.42-.08-3.65-.52.24-1.71a1.42,1.42,0,0,0-.28-1.08,1.46,1.46,0,0,0-1-.57l-1-.14-3.83-.55-.69-.1a1.45,1.45,0,0,0-1.64,1.23l-.24,1.71-6.3-.9a4.42,4.42,0,0,0-5,3.73l-1.14,8a4.4,4.4,0,0,0,3.73,5l18.3,2.61a3.8,3.8,0,0,0,1,0h0a4.41,4.41,0,0,0,4-3.76l1.15-8A4.38,4.38,0,0,0,76.55,300.82Zm-14.32-6a.54.54,0,0,1,.45-.46h.16l.81.12,3,.43,1.64.23a.54.54,0,0,1,.46.61l-.24,1.71L62,296.5Z" transform="translate(-0.63 -79.28)" style="fill: #1a2e35"/>
      </g>
      <g>
        <path d="M68.75,288.8a6.41,6.41,0,0,0-1,1.79c-.26,3.47,1.33,4-2.78,5.88,0,0-1.75.67-1.78-.69s1.22-1.38,1-3.29c-.26-2.2-.24-2.22,1.21-3.37l1-1.58Z" transform="translate(-0.63 -79.28)" style="fill: #fff"/>
        <path d="M64.1,296.73a1.08,1.08,0,0,1-.64-.17.89.89,0,0,1-.36-.78,2.07,2.07,0,0,1,.49-1.35,2.35,2.35,0,0,0,.5-1.93c-.26-2.2-.24-2.27,1.23-3.44l1-1.57a.08.08,0,0,1,.11,0l2.41,1.25a.07.07,0,0,1,0,.06.07.07,0,0,1,0,.07,6,6,0,0,0-1,1.75,12.62,12.62,0,0,0,0,2.2c.14,1.63.2,2.31-2.87,3.75A2.14,2.14,0,0,1,64.1,296.73Zm2.27-9.07-.91,1.51,0,0c-1.43,1.14-1.43,1.14-1.18,3.29a2.57,2.57,0,0,1-.53,2,1.93,1.93,0,0,0-.46,1.25.74.74,0,0,0,.29.64c.47.32,1.37,0,1.38,0,3-1.39,2.91-2,2.77-3.58a13,13,0,0,1,0-2.23,5.55,5.55,0,0,1,1-1.76Z" transform="translate(-0.63 -79.28)" style="fill: #1a2e35"/>
      </g>
      <path d="M66.3,289.78a14.26,14.26,0,0,0,3.23.18s4.6-14.2,5.19-15.49,13.65-16.65,13.65-16.65L82.93,244.2S68.8,267.79,67.37,271.11c-2.37,5.48-3.19,17.76-3.19,17.76A5.72,5.72,0,0,0,66.3,289.78Z" transform="translate(-0.63 -79.28)" style="fill: #a9c2ff"/>
      <path d="M84.56,235.68s.85-.14.71-1.31-.13-2.69.81-2.4,1,1,1.38.6.4-2.31,3.21-2.44,4,.85,5.27.27,1.38-2.56,1.38-2.56a2.22,2.22,0,0,1-.93.93s2.18-3-.34-5-5.11-.71-6.57-.62c-3.22.2-5.31.39-6.36,2.51S82.49,233.64,84.56,235.68Z" transform="translate(-0.63 -79.28)" style="fill: #1a2e35"/>
      <g>
        <path d="M67.23,290.33s.93,1,1,1.37c.19,1.29.62,1.85.4,2-.45.29-1-.66-1.33-1.52A4,4,0,0,1,67.23,290.33Z" transform="translate(-0.63 -79.28)" style="fill: #fff"/>
        <path d="M68.45,293.83l-.15,0c-.43-.15-.86-.94-1.08-1.61a3.9,3.9,0,0,1-.06-1.88s0-.06.06-.06a.1.1,0,0,1,.09,0,4.63,4.63,0,0,1,1,1.42,8.51,8.51,0,0,0,.34,1.39c.12.36.19.58,0,.69A.71.71,0,0,1,68.45,293.83Zm-1.16-3.32a3.59,3.59,0,0,0,.09,1.62c.21.65.62,1.37,1,1.5a.24.24,0,0,0,.22,0c.06,0,0-.25-.09-.49a7.92,7.92,0,0,1-.35-1.41A4.25,4.25,0,0,0,67.29,290.51Z" transform="translate(-0.63 -79.28)" style="fill: #1a2e35"/>
      </g>
    </g>
    <g>
      <path d="M236.91,368.44H150A11.48,11.48,0,0,1,138.56,357V188.41A11.48,11.48,0,0,1,150,176.93h86.87a11.48,11.48,0,0,1,11.48,11.48V357A11.48,11.48,0,0,1,236.91,368.44Z" transform="translate(-0.63 -79.28)" style="fill: #fff"/>
      <path d="M238.21,369.72H148.74a11.47,11.47,0,0,1-11.46-11.46V187.12a11.47,11.47,0,0,1,11.46-11.46h89.47a11.47,11.47,0,0,1,11.46,11.46V358.27A11.48,11.48,0,0,1,238.21,369.72ZM148.74,178.21a8.91,8.91,0,0,0-8.9,8.9V358.26a8.91,8.91,0,0,0,8.9,8.9h89.47a8.91,8.91,0,0,0,8.9-8.9V187.12a8.91,8.91,0,0,0-8.9-8.9H148.74Z" transform="translate(-0.63 -79.28)" style="fill: #1a2e35"/>
    </g>
    <g id="eefb875c-6e83-4606-aa74-a6c20188484c" data-name="girl 2">
      <path d="M247.64,293a9.46,9.46,0,0,1,9.44,2.7c5.81,6.31,1.53,11.18,4.44,15.6,1.76,2.67,3.23,7.35-2.21,10.12-2.52,1.28-10,8-11.56,8.12-15.57,1.6-15.85-14.2-10.6-18.77C244.52,304.36,237.78,295.9,247.64,293Z" transform="translate(-0.63 -79.28)" style="fill: #1a2e35"/>
      <g>
        <path d="M255.77,317.44s14.21,6.88,16.87,6.77,19.3-6,19.3-6l-.42,2.82s-12.66,7.28-17.08,7.69-19.25-3.91-20.69-4.82S251.59,318.37,255.77,317.44Z" transform="translate(-0.63 -79.28)" style="fill: #fff"/>
        <path d="M273.79,328.86c-5.11,0-18.79-4-20.08-4.86a3.91,3.91,0,0,1,2-6.64h.06c.14.07,14,6.76,16.76,6.76h.07c2.62-.11,19.11-5.91,19.27-6a.11.11,0,0,1,.08,0,.11.11,0,0,1,0,.08l-.42,2.82a.07.07,0,0,1,0,.06c-.13.07-12.72,7.29-17.12,7.7A4.57,4.57,0,0,1,273.79,328.86Zm-18-11.32a3.74,3.74,0,0,0-2,6.32c1.35.86,16.2,5.23,20.64,4.81,4.24-.4,16.26-7.23,17-7.66l.39-2.64c-1.7.6-16.64,5.82-19.19,5.93h-.07C269.79,324.3,256.64,318,255.76,317.54Z" transform="translate(-0.63 -79.28)" style="fill: #1a2e35"/>
      </g>
      <g>
        <path d="M257.34,323.94a14.21,14.21,0,0,1-4.93,2.1c-7.6,1.76-10.51-4.67-11.6-9.07a6.64,6.64,0,0,1,2.57-.79c.55-.06,1.13-.11,1.61-.13.85-.65,2.12-3.33,2.41-7.48l.36.1,6,1.64s-.27,1.9-.41,3.7a7.1,7.1,0,0,0,.15,3.08l.75.17h0A39.62,39.62,0,0,1,257.34,323.94Z" transform="translate(-0.63 -79.28)" style="fill: #fff"/>
        <path d="M250,326.42c-5.94,0-8.33-5.73-9.25-9.43a.1.1,0,0,1,0-.1,6.61,6.61,0,0,1,2.61-.8c.48-.06,1-.1,1.58-.13.77-.61,2.06-3.14,2.35-7.4a.07.07,0,0,1,0-.06.09.09,0,0,1,.07,0l.36.1,6,1.64a.08.08,0,0,1,.06.1s-.28,1.92-.41,3.7c-.16,2.18,0,2.82.11,3l.72.16s0,0,.06.05a39.07,39.07,0,0,1,3.12,6.7.09.09,0,0,1,0,.1,14.31,14.31,0,0,1-5,2.11A13.1,13.1,0,0,1,250,326.42ZM240.9,317a15.67,15.67,0,0,0,3.33,6.75c2.09,2.23,4.83,3,8.16,2.2a14.21,14.21,0,0,0,4.85-2.05,39.09,39.09,0,0,0-3.07-6.58l-.71-.16a.05.05,0,0,1-.05,0c-.25-.3-.3-1.33-.17-3.14.12-1.58.35-3.26.4-3.63l-6.17-1.69c-.31,4.3-1.65,6.84-2.43,7.44l0,0c-.54,0-1.11.07-1.6.13A6.45,6.45,0,0,0,240.9,317Z" transform="translate(-0.63 -79.28)" style="fill: #1a2e35"/>
      </g>
      <g>
        <path d="M254.75,312.08s-8.05-.44-7.7-5.45-.45-8.44,4.71-8.37,6,2.05,6.31,3.76S256.85,312.07,254.75,312.08Z" transform="translate(-0.63 -79.28)" style="fill: #fff"/>
        <path d="M254.75,312.17h0c-.05,0-4.75-.29-6.81-2.63a3.86,3.86,0,0,1-1-2.92c.05-.76.08-1.48.11-2.17.14-3.82.23-6.34,4.69-6.28,5.07.07,6.08,2,6.39,3.83.24,1.44-.76,7.62-2.4,9.58a1.43,1.43,0,0,1-1,.59Zm-3.15-13.83c-4.13,0-4.21,2.31-4.36,6.11,0,.69-.05,1.41-.11,2.18a3.67,3.67,0,0,0,.93,2.79c2,2.27,6.55,2.57,6.69,2.57a1.21,1.21,0,0,0,.87-.53c1.58-1.89,2.6-8.06,2.36-9.44-.3-1.78-1.28-3.61-6.22-3.68Z" transform="translate(-0.63 -79.28)" style="fill: #1a2e35"/>
      </g>
      <path d="M258,299.21c-1.14-1.6-2.1-1.33-2.66-.92a5.64,5.64,0,0,0-7.31.64,9.6,9.6,0,0,1-3.54,5.43s1.43,1.14,4.84.38a8.53,8.53,0,0,0,6.07-5.34,5.23,5.23,0,0,1,1.51,1.81,8,8,0,0,1,.89,4S259.73,301.6,258,299.21Z" transform="translate(-0.63 -79.28)" style="fill: #1a2e35"/>
      <g>
        <path d="M238.51,340.31c-.73-3.72-3.1-18.57-.73-23.35.85-1.72,4.19-1.87,7.86-1.72,1.14.74,5.49,3.52,7.27,3.17l.1,0c.84-.21,1.16-.8.46-1.31a35.8,35.8,0,0,1,3.86.54c1.27.24,4.77,2.39,4.77,2.39a10.45,10.45,0,0,1-4.14,3.55c.43,3.88-.21,5.59-4.24,14.55a17,17,0,0,0,.46,14.4s-20,16.1-20.13,7.9C234,354.23,239.44,345.06,238.51,340.31Z" transform="translate(-0.63 -79.28)" style="fill: #fff"/>
        <path d="M236.26,362.81a2.64,2.64,0,0,1-1.16-.23,2.2,2.2,0,0,1-1.12-2.19c0-3,1.2-6.64,2.4-10.18,1.3-3.83,2.53-7.45,2.05-9.89-1-5-3-18.83-.72-23.4.9-1.8,4.35-1.92,7.94-1.77h0c3.5,2.26,6.06,3.39,7.21,3.16l.1,0c.43-.11.72-.32.77-.57s-.08-.4-.34-.59a.09.09,0,0,1,0-.11c0-.06,0-.07,1.18.06.62.07,1.61.21,2.78.43a25.35,25.35,0,0,1,4.8,2.4.1.1,0,0,1,0,.05.09.09,0,0,1,0,.07,10.76,10.76,0,0,1-4.12,3.55c.42,3.82-.16,5.43-4.25,14.53a17.08,17.08,0,0,0,.46,14.32.09.09,0,0,1,0,.11C253.69,353,241.44,362.81,236.26,362.81Zm2.34-22.52c.49,2.49-.75,6.13-2.06,10-1.2,3.53-2.43,7.17-2.39,10.12a2,2,0,0,0,1,2c4,1.86,17.91-9.15,18.91-9.95a17.27,17.27,0,0,1-.43-14.41c4.1-9.12,4.66-10.68,4.23-14.51a.11.11,0,0,1,.05-.09A10.34,10.34,0,0,0,262,320a24.61,24.61,0,0,0-4.66-2.33c-1.73-.33-3.06-.47-3.59-.52a.68.68,0,0,1,.21.59c-.06.31-.4.58-.9.7l-.1,0c-1.52.29-4.82-1.56-7.32-3.17-3.36-.14-6.9,0-7.75,1.67C235.61,321.53,237.63,335.35,238.6,340.29Z" transform="translate(-0.63 -79.28)" style="fill: #1a2e35"/>
      </g>
      <path d="M255.19,370a3.72,3.72,0,0,0,2.68-1.63c.1-.14.2-.3.31-.47,2.28-3.45,3.17-14,8.29-25.27,1.25-2.74,5.73-3.23,6.95-6.33,0,0,3-10-5.76-10.34S244.18,353.9,244,356.86,238.16,371.92,255.19,370Z" transform="translate(-0.63 -79.28)" style="fill: #8eaff1"/>
      <path d="M290,369.94H277.55a5.43,5.43,0,0,1,.35-3.43,2.53,2.53,0,0,0-.09-2.95,4.83,4.83,0,0,0,2.1.41,4.46,4.46,0,0,0,1.86-.67,47.22,47.22,0,0,0,3.55,3.83C286.14,367.73,289.78,367.52,290,369.94Z" transform="translate(-0.63 -79.28)" style="fill: #1a2e35"/>
      <path d="M273.71,328.87c.75,5.63,3.69,23.41,8.86,32.08,1.67,2.8-4.2,4.36-4.24,4.36a9.85,9.85,0,0,1-2.7-2c-4.2-3.79-12.73-14.51-12.73-23.11,0-4.19-.07-12.2,3-14.23C267.75,324.71,273.41,326.63,273.71,328.87Z" transform="translate(-0.63 -79.28)" style="fill: #8eaff1"/>
      <path d="M239,323.93s2.53,5.15,14.35,8.79,5.06-5.5,5.06-5.5l-16.52-5.77Z" transform="translate(-0.63 -79.28)" style="fill: #dbdbdb"/>
      <path d="M249.09,370a9.25,9.25,0,0,0,1-2.36c.67-2.35.91-4.07,2.2-7.73,1.35-3.85,3-8.58,5-13.51.62-1.52,1.28-3.06,2-4.6,1.25-2.74,4.68-2.36,5.91-5.46,0,0,4.77-10.74-4-11s-25.42,28.73-26.38,31.54C233.75,359.94,230,373,249.09,370Z" transform="translate(-0.63 -79.28)" style="fill: #a9c2ff"/>
      <path d="M280.87,369.94H268.39a5.43,5.43,0,0,1,.35-3.43,2.51,2.51,0,0,0-.09-2.95,4.83,4.83,0,0,0,2.1.41,4.46,4.46,0,0,0,1.86-.67,45.62,45.62,0,0,0,3.56,3.83C277,367.73,280.62,367.52,280.87,369.94Z" transform="translate(-0.63 -79.28)" style="fill: #1a2e35"/>
      <g style="opacity: 0.5">
        <path d="M252.32,359.93c1.35-3.85,3-8.58,5-13.51-.52-3.73-1.65-7-3.55-8.31C253.73,338.1,249.12,352.39,252.32,359.93Z" transform="translate(-0.63 -79.28)" style="fill: #8eaff1"/>
      </g>
      <path d="M266.42,328.47c.75,5.63,1.81,23.81,7,32.48,1.67,2.8-4.2,4.36-4.24,4.36a9.85,9.85,0,0,1-2.7-2c-4.2-3.79-12.73-14.51-12.73-23.11,0-4.19,4.92-11.86,8-13.9A3.07,3.07,0,0,1,266.42,328.47Z" transform="translate(-0.63 -79.28)" style="fill: #a9c2ff"/>
      <g>
        <g>
          <path d="M293.43,311l-12.78-1.36a.84.84,0,0,0-.86.53l-4.57,12a.83.83,0,0,0,.74,1.12l12.68.51a.83.83,0,0,0,.79-.51l4.67-11.17A.81.81,0,0,0,293.43,311Z" transform="translate(-0.63 -79.28)" style="fill: #fff"/>
          <path d="M288.67,323.88h0L276,323.37a.88.88,0,0,1-.72-.41.91.91,0,0,1-.09-.83l4.57-12a.92.92,0,0,1,1-.58l12.78,1.36h0a.91.91,0,0,1,.75,1.26l-4.67,11.17A.94.94,0,0,1,288.67,323.88Zm-8.1-14.18a.74.74,0,0,0-.69.48l-4.57,12a.73.73,0,0,0,.07.67.74.74,0,0,0,.59.33l12.68.51a.75.75,0,0,0,.71-.45L294,312.08a.73.73,0,0,0,0-.66.75.75,0,0,0-.56-.36l-12.78-1.36Z" transform="translate(-0.63 -79.28)" style="fill: #1a2e35"/>
        </g>
        <g>
          <path d="M294.54,311.09l-12.78-1.36a.84.84,0,0,0-.86.53l-4.57,12a.83.83,0,0,0,.74,1.12l12.68.51a.83.83,0,0,0,.79-.51l4.67-11.17A.81.81,0,0,0,294.54,311.09Z" transform="translate(-0.63 -79.28)" style="fill: #fff"/>
          <path d="M289.78,324h0l-12.68-.51a.88.88,0,0,1-.72-.41.91.91,0,0,1-.09-.83l4.57-12a.92.92,0,0,1,.95-.58L294.55,311h0a.91.91,0,0,1,.75,1.26l-4.67,11.17A.94.94,0,0,1,289.78,324Zm-8.1-14.17a.74.74,0,0,0-.69.48l-4.57,12a.73.73,0,0,0,.07.67.74.74,0,0,0,.59.33l12.68.51a.74.74,0,0,0,.71-.45l4.67-11.17a.73.73,0,0,0-.05-.66.75.75,0,0,0-.56-.36l-12.78-1.36Z" transform="translate(-0.63 -79.28)" style="fill: #1a2e35"/>
        </g>
        <path d="M287.46,316.7a.53.53,0,0,0-.49-.78,1.25,1.25,0,0,0-1.06.78.53.53,0,0,0,.49.78A1.23,1.23,0,0,0,287.46,316.7Z" transform="translate(-0.63 -79.28)" style="fill: #e8f2fa"/>
        <path d="M294.16,312.23a.26.26,0,0,0-.24-.38.61.61,0,0,0-.52.38.26.26,0,0,0,.24.38A.61.61,0,0,0,294.16,312.23Z" transform="translate(-0.63 -79.28)" style="fill: #e8f2fa"/>
      </g>
      <g>
        <path d="M240.8,317s17.71,6.52,20.37,6.39c1.72-.09,16-5.11,16-5.11l1.28,2.43s-13.91,8.94-17.74,8.9c-7.55-.09-20.29-4.72-21.73-5.63S236.63,317.88,240.8,317Z" transform="translate(-0.63 -79.28)" style="fill: #fff"/>
        <path d="M260.76,329.65h0c-7.68-.09-20.34-4.73-21.78-5.65-.81-.51-1.49-2.3-1.18-4.05a3.68,3.68,0,0,1,3-3.08h.05c.18.07,17.72,6.51,20.34,6.38,1.69-.08,15.85-5.06,16-5.11a.09.09,0,0,1,.11,0l1.28,2.43a.08.08,0,0,1,0,.11C278,321.1,264.61,329.65,260.76,329.65Zm-20-12.6a3.52,3.52,0,0,0-2.86,2.93c-.29,1.63.35,3.39,1.11,3.87,1.39.88,14.2,5.53,21.69,5.62h0c3.66,0,16.55-8.17,17.6-8.84l-1.21-2.29c-1.21.42-14.3,5-16,5.09h-.09C258.2,323.44,241.8,317.42,240.8,317.05Z" transform="translate(-0.63 -79.28)" style="fill: #1a2e35"/>
      </g>
      <g>
        <path d="M277.19,318.24s1.28-2,2.56-2,3.49.87,4.24,1,2.9.84,2.27,1.89-3.6,1.28-4.88,1.05a5.93,5.93,0,0,0-2.9.51Z" transform="translate(-0.63 -79.28)" style="fill: #fff"/>
        <path d="M278.47,320.75a.1.1,0,0,1-.08-.05l-1.28-2.43a.14.14,0,0,1,0-.09c.05-.08,1.32-2,2.63-2.07a10.77,10.77,0,0,1,3.2.71,10.72,10.72,0,0,0,1.06.31c.51.1,2.06.55,2.39,1.3a.75.75,0,0,1-.07.72c-.67,1.09-3.64,1.33-5,1.09a5.9,5.9,0,0,0-2.85.5Zm-1.18-2.51,1.22,2.31a5.82,5.82,0,0,1,2.88-.48c1.29.23,4.19,0,4.79-1a.54.54,0,0,0,.05-.56c-.28-.63-1.64-1.08-2.26-1.2-.24-.05-.63-.17-1.08-.32a10.83,10.83,0,0,0-3.14-.7C278.64,316.34,277.48,318,277.29,318.24Z" transform="translate(-0.63 -79.28)" style="fill: #1a2e35"/>
      </g>
      <g>
        <path d="M279.4,316.27s2-.93,2.61-1.11.46,0,.29.55-1.22,1.08-1.22,1.25S279.4,316.27,279.4,316.27Z" transform="translate(-0.63 -79.28)" style="fill: #fff"/>
        <path d="M281.06,317.07a6,6,0,0,1-1.7-.72.09.09,0,0,1,0-.16c.08,0,2-.94,2.62-1.11.25-.07.41-.1.49,0s0,.25-.05.52l-.05.15a2.48,2.48,0,0,1-.88.95,1.8,1.8,0,0,0-.33.29.1.1,0,0,1-.05.08Zm-1.46-.8a8.94,8.94,0,0,0,1.41.62c0-.09.16-.18.38-.35s.73-.55.82-.86l.05-.15a1.33,1.33,0,0,0,.09-.35s-.06,0-.32.06C281.57,315.38,280.1,316.05,279.6,316.27Z" transform="translate(-0.63 -79.28)" style="fill: #1a2e35"/>
      </g>
      <g>
        <path d="M293.22,317.19s-.81-2.67-1.7-1.83-.36,1.75-.25,2.86c.22,2.13.65,2,.92,1.94A3.86,3.86,0,0,0,293.22,317.19Z" transform="translate(-0.63 -79.28)" style="fill: #fff"/>
        <path d="M292,320.29a.42.42,0,0,1-.21-.06c-.19-.12-.45-.45-.61-2a6.17,6.17,0,0,0-.14-.79,2,2,0,0,1,.42-2.14.57.57,0,0,1,.55-.17c.73.19,1.27,2,1.29,2h0a3.9,3.9,0,0,1-1.09,3.07A.59.59,0,0,1,292,320.29Zm-.13-5a.46.46,0,0,0-.3.14c-.66.62-.53,1.22-.37,2a6.5,6.5,0,0,1,.14.81c.14,1.35.36,1.76.53,1.87a.31.31,0,0,0,.28,0,3.92,3.92,0,0,0,1-2.86c-.15-.49-.65-1.78-1.17-1.92Z" transform="translate(-0.63 -79.28)" style="fill: #1a2e35"/>
      </g>
      <g>
        <path d="M293.27,317.6a3.39,3.39,0,0,1-1.75,3.46l.64-1.56Z" transform="translate(-0.63 -79.28)" style="fill: #fff"/>
        <path d="M291.52,321.15l-.06,0a.08.08,0,0,1,0-.1l.64-1.56,1.12-1.91a.08.08,0,0,1,.09,0,.08.08,0,0,1,.07.07,3.5,3.5,0,0,1-1.79,3.55Zm1.69-3.28-1,1.66-.54,1.32A3.27,3.27,0,0,0,293.21,317.87Z" transform="translate(-0.63 -79.28)" style="fill: #1a2e35"/>
      </g>
      <path d="M256.26,309.2a7.46,7.46,0,0,0-2.9-.13s.11.84,1.69.92A1.26,1.26,0,0,0,256.26,309.2Z" transform="translate(-0.63 -79.28)" style="fill: #fff"/>
      <g>
        <path d="M249.93,320.18a9.72,9.72,0,0,1-7,6.15s-9-2.77-4.51-8.89C238.39,317.44,242.82,314.16,249.93,320.18Z" transform="translate(-0.63 -79.28)" style="fill: #fff"/>
        <path d="M242.91,326.42h0s-4.62-1.45-5.62-4.48a4.91,4.91,0,0,1,1.07-4.54l0,0s4.56-3.26,11.64,2.74a.08.08,0,0,1,0,.09,9.88,9.88,0,0,1-7.09,6.21Zm-4.45-8.91a4.75,4.75,0,0,0-1,4.37c.94,2.84,5.15,4.26,5.49,4.37a9.69,9.69,0,0,0,6.92-6C243,314.49,238.69,317.34,238.46,317.51Z" transform="translate(-0.63 -79.28)" style="fill: #1a2e35"/>
      </g>
      <g>
        <path d="M293.27,317.92s.37-1.25.39-1.47,0-.33-.2-.17a1,1,0,0,0-.4.93C293.16,317.59,293.27,317.92,293.27,317.92Z" transform="translate(-0.63 -79.28)" style="fill: #fff"/>
        <path d="M293.27,318a.08.08,0,0,1-.08-.06,7.27,7.27,0,0,1-.2-.72,1.11,1.11,0,0,1,.43-1c.07-.06.17-.12.26-.07s.09.19.08.32-.38,1.43-.4,1.48a.11.11,0,0,1-.09.07Zm.32-1.71-.06,0a1,1,0,0,0-.37.85l.11.43c.12-.42.3-1,.31-1.18A.88.88,0,0,0,293.59,316.3Z" transform="translate(-0.63 -79.28)" style="fill: #1a2e35"/>
      </g>
    </g>
    <g>
      <g>
        <g>
          <path d="M176.58,205.4a1.28,1.28,0,0,0-.23,1.37h0a8.53,8.53,0,0,0,2.69,2.95l.43.36.1.09a.46.46,0,0,1,.07.07c1.18,1.09.74,1.34,2.86,3.56,2.42,2.52,4.09,2.57,4.57,2.34s-.41-1.53-1.32-3l-.13-.22-.36-.6c-1.06-1.81-.79-2.66-.54-5.35.2-2.19,3.41-12.23,3.41-12.23l-4.65-.8s-1.4,8-2.94,9.23c-.82.66-1.75.66-2.54,1.15l-.16.1A5.49,5.49,0,0,0,176.58,205.4Z" transform="translate(-0.63 -79.28)" style="fill: #fff"/>
          <path d="M186.59,216.32c-.82,0-2.27-.51-4.14-2.46a12.64,12.64,0,0,1-1.88-2.35,4.78,4.78,0,0,0-1-1.2l-.07-.07-.1-.09-.43-.36a8.88,8.88,0,0,1-2.72-3h0a1.38,1.38,0,0,1,.24-1.46h0a6.54,6.54,0,0,1,1.29-1l.17-.11a4.76,4.76,0,0,1,1.1-.46,4.45,4.45,0,0,0,1.43-.68c1.5-1.2,2.9-9.09,2.91-9.17a.08.08,0,0,1,.1-.07l4.65.8a.08.08,0,0,1,.06,0,.09.09,0,0,1,0,.07c0,.1-3.2,10.06-3.4,12.21,0,.35-.07.66-.1,1-.2,2-.29,2.79.62,4.34l.11.18c.08.14.17.28.25.43l.08.13.11.19c.92,1.53,1.48,2.49,1.36,2.9a.26.26,0,0,1-.14.17A1.38,1.38,0,0,1,186.59,216.32Zm-10.16-9.59h0a8.69,8.69,0,0,0,2.67,2.92l.43.36.1.09.07.07a5.28,5.28,0,0,1,1,1.24,12.49,12.49,0,0,0,1.86,2.32c2.41,2.51,4,2.53,4.47,2.32a.1.1,0,0,0,.05-.06c.1-.35-.63-1.58-1.35-2.76l-.11-.19-.08-.13c-.09-.14-.17-.28-.25-.43l-.11-.18c-.94-1.6-.85-2.49-.64-4.45,0-.29.06-.61.1-1,.19-2.08,3-11.06,3.38-12.15l-4.46-.77c-.16.91-1.48,8-3,9.19a4.46,4.46,0,0,1-1.48.71,4.58,4.58,0,0,0-1.07.45l-.16.1a5.9,5.9,0,0,0-1.25,1h0A1.17,1.17,0,0,0,176.43,206.73Z" transform="translate(-0.63 -79.28)" style="fill: #1a2e35"/>
        </g>
        <path d="M176.58,205.4a1.28,1.28,0,0,0-.23,1.37h0a9.87,9.87,0,0,0,2.7,2.94l.43.37.1.09a.46.46,0,0,1,.07.07c1.18,1.09.74,1.34,2.86,3.56,2.42,2.52,4.09,2.57,4.57,2.34s-.41-1.53-1.32-3a10.31,10.31,0,0,1-4.32-3.18c-1.46-1.86-2.43-4.26-3.43-5.64l-.16.1A5.33,5.33,0,0,0,176.58,205.4Z" transform="translate(-0.63 -79.28)" style="fill: #1a2e35"/>
        <g>
          <path d="M214.05,202.49c.29,1.43,2.33,1.2,4.62.64s1.74.11,5-.25,4.24-1.57,4.33-2.06-1.52-.58-3.24-.78l-.65-.08c-1.95-.24-3.37-1.5-5.14-2.53s-4.17-5-4.17-5l-4.46.35s2.34,3.55,3.24,5.1a5.47,5.47,0,0,1,.44,3A6,6,0,0,0,214.05,202.49Z" transform="translate(-0.63 -79.28)" style="fill: #fff"/>
          <path d="M215.88,203.66a2.66,2.66,0,0,1-1.36-.3,1.22,1.22,0,0,1-.56-.84h0a5.79,5.79,0,0,1,0-1.55,5.23,5.23,0,0,0-.43-3c-.89-1.53-3.22-5.06-3.24-5.09a.1.1,0,0,1,0-.09.08.08,0,0,1,.07-.05l4.46-.35a.09.09,0,0,1,.08,0s2.51,4,4.14,4.93c.44.26.86.53,1.27.79a9.41,9.41,0,0,0,3.83,1.73l.65.08.34,0c1.66.19,2.69.32,2.93.64a.29.29,0,0,1,.05.2c-.12.58-1.19,1.77-4.41,2.12a12.34,12.34,0,0,1-2.81.06,5.5,5.5,0,0,0-2.17.19A12.59,12.59,0,0,1,215.88,203.66Zm-5.4-10.75c.42.64,2.37,3.61,3.17,5a5.43,5.43,0,0,1,.45,3.09,5.82,5.82,0,0,0,0,1.5h0a1.07,1.07,0,0,0,.48.73c.83.53,2.59.19,4-.16a5.66,5.66,0,0,1,2.23-.2,12.07,12.07,0,0,0,2.78-.06c3.23-.36,4.17-1.56,4.26-2a.11.11,0,0,0,0-.07,7.64,7.64,0,0,0-2.8-.57l-.34,0-.65-.08a9.52,9.52,0,0,1-3.91-1.75l-1.26-.79c-1.6-.93-3.88-4.48-4.17-4.94Z" transform="translate(-0.63 -79.28)" style="fill: #1a2e35"/>
        </g>
        <path d="M218.66,203.13c2.28-.56,1.74.11,5-.25s4.24-1.57,4.33-2.06-1.52-.58-3.24-.78l0,0a9.22,9.22,0,0,1-4.66,1.45c-2.21,0-4.54-.58-6.06-.55a6,6,0,0,0,0,1.53C214.33,203.93,216.38,203.69,218.66,203.13Z" transform="translate(-0.63 -79.28)" style="fill: #1a2e35"/>
        <path d="M197,174l-4.17,11.21-5.44,14.64a9,9,0,0,1-2.89-.26,12.85,12.85,0,0,1-2.8-1.36s1.51-15.72,4.33-24.75a16.15,16.15,0,0,1,2.42-5.25C192.79,163.06,197,174,197,174Z" transform="translate(-0.63 -79.28)" style="fill: #dbdbdb"/>
        <g>
          <path d="M192.73,156.18c-2.6-.84-9.79.15-17.23,1.57a1.65,1.65,0,0,1-1.71-.76l-1-1.73-16.9-1.32s-4.36,9.91-2.51,18.15c.45,2,2.92,4.64,6.7,4.87,10.58.66,17.72-3,28.71-6.88,1.91-.67,2.78,3.58,4.77,7.75s18.67,18.47,18.67,18.47a14.5,14.5,0,0,0,3.62-.37,3.64,3.64,0,0,0,1.56-1S198.88,158.16,192.73,156.18Z" transform="translate(-0.63 -79.28)" style="fill: #fff"/>
          <path d="M212.3,196.39h-.11l-.06,0c-.68-.58-16.72-14.36-18.69-18.5-.55-1.15-1-2.33-1.44-3.37-1.07-2.68-1.92-4.79-3.22-4.33-2,.7-3.85,1.39-5.64,2.06-8.06,3-14.42,5.37-23.1,4.83-4-.25-6.35-3-6.78-4.94-1.84-8.18,2.47-18.11,2.51-18.21a.09.09,0,0,1,.09,0l16.9,1.32a.1.1,0,0,1,.07,0l1,1.73a1.56,1.56,0,0,0,1.62.72c9.22-1.76,15-2.29,17.27-1.56,6.12,2,23.94,37.31,24.7,38.81a.1.1,0,0,1,0,.09,3.72,3.72,0,0,1-1.59,1A14.62,14.62,0,0,1,212.3,196.39Zm-.08-.18a14.08,14.08,0,0,0,3.56-.37,3.89,3.89,0,0,0,1.48-.91c-.79-1.56-18.62-36.75-24.57-38.67h0c-2.21-.71-8-.19-17.18,1.57a1.76,1.76,0,0,1-1.8-.8l-1-1.69L155.9,154c-.35.82-4.23,10.24-2.48,18,.42,1.85,2.74,4.56,6.62,4.8,8.64.54,15-1.82,23-4.82,1.79-.67,3.65-1.36,5.65-2.06,1.46-.51,2.29,1.56,3.44,4.43.41,1,.89,2.21,1.43,3.36C195.52,181.83,211.5,195.59,212.22,196.21Z" transform="translate(-0.63 -79.28)" style="fill: #1a2e35"/>
        </g>
        <path d="M172.08,106.06a17.65,17.65,0,0,0-6-1.36c-6.4-.86-10.26,8.44-10.48,11.26-.42,5.2-3.17,6-7,9.24-7.76,6.53-5.48,14.11-1.24,16.92,2.55,1.69,7,0,7,0s12.27-6.82,18.29-10.14C181.67,130.71,177.6,109,172.08,106.06Z" transform="translate(-0.63 -79.28)" style="fill: #1a2e35"/>
        <g>
          <path d="M167.6,129.17s-3,1-5,.15-3.3-3.92-3.27-3.92c.85,0,1.79-.79,2.52-5.69l.36.13,6.12,2.2s-.44,2-.73,3.83C167.4,127.44,167.27,129,167.6,129.17Z" transform="translate(-0.63 -79.28)" style="fill: #fff"/>
          <path d="M164.61,129.76a5.15,5.15,0,0,1-2-.36c-1.87-.82-3.34-3.91-3.32-4a.08.08,0,0,1,.08-.07c.8,0,1.72-.73,2.43-5.62a.07.07,0,0,1,0-.06.09.09,0,0,1,.07,0l6.48,2.33a.1.1,0,0,1,.06.1s-.45,2-.73,3.83c-.41,2.67-.19,3.13-.07,3.21a.08.08,0,0,1,0,.11A8.26,8.26,0,0,1,164.61,129.76Zm-5.12-4.29c.24.55,1.55,3,3.19,3.77s4.21.09,4.78-.11c-.16-.26-.25-1,.1-3.27.25-1.65.63-3.39.71-3.76L162,119.83C161.25,124.52,160.33,125.37,159.49,125.47Z" transform="translate(-0.63 -79.28)" style="fill: #1a2e35"/>
        </g>
        <g>
          <path d="M169.28,124s-8.37-1.12-7.59-6.33.22-8.85,5.6-8.36,6.12,2.64,6.28,4.44S171.48,124.15,169.28,124Z" transform="translate(-0.63 -79.28)" style="fill: #fff"/>
          <path d="M169.34,124.08h-.08s-4.93-.69-6.89-3.3a4,4,0,0,1-.77-3.12c.12-.79.21-1.54.29-2.26.46-4,.77-6.6,5.41-6.17,5.29.49,6.18,2.56,6.36,4.52.14,1.52-1.41,7.89-3.29,9.81A1.54,1.54,0,0,1,169.34,124.08Zm-.05-.18a1.26,1.26,0,0,0,1-.48c1.81-1.84,3.37-8.21,3.24-9.67-.17-1.89-1-3.88-6.2-4.36-4.47-.41-4.75,2-5.22,6-.08.72-.17,1.47-.29,2.27a3.82,3.82,0,0,0,.74,3C164.42,123.2,169.16,123.88,169.29,123.9Z" transform="translate(-0.63 -79.28)" style="fill: #1a2e35"/>
        </g>
        <path d="M173.27,110.89s-5.36,4.62-9,5-5-.8-5-.8a14.15,14.15,0,0,0,3.44-4.66,2.56,2.56,0,0,1,2.11-1.51C167.4,108.69,172.33,108.58,173.27,110.89Z" transform="translate(-0.63 -79.28)" style="fill: #1a2e35"/>
        <path d="M169.92,110.48a13.24,13.24,0,0,1,2.36,3,10.13,10.13,0,0,1,.27,5.39s2.79-5.43,1.21-8.07C172.08,108,169.92,110.48,169.92,110.48Z" transform="translate(-0.63 -79.28)" style="fill: #1a2e35"/>
        <path d="M174.65,141.5c.64,15.11-.37,14.28-1.92,15a10,10,0,0,1-3.36.73c-5.2.34-14.33-.51-14.68-1.47-1.2-3.32-.35-4.36-1.35-9.44-.1-.54-.23-1.13-.38-1.76-.83-3.49-1.65-4.68,1.31-10.3,2.68-5.09,5.47-9.21,5.72-9.06,7.08,4.2,7.65.67,7.65.67S174.3,133.24,174.65,141.5Z" transform="translate(-0.63 -79.28)" style="fill: #a9c2ff"/>
        <g>
          <path d="M192.79,185.2l-5.44,14.64a9,9,0,0,1-2.89-.26,12.85,12.85,0,0,1-2.8-1.36s1.51-15.72,4.33-24.75Z" transform="translate(-0.63 -79.28)" style="fill: #fff"/>
          <path d="M186.72,200a8.59,8.59,0,0,1-2.28-.29,13.09,13.09,0,0,1-2.82-1.37.09.09,0,0,1,0-.08c0-.16,1.54-15.83,4.33-24.77a.09.09,0,0,1,.07-.06s.07,0,.08,0l6.8,11.73a.09.09,0,0,1,0,.07l-5.44,14.64a.11.11,0,0,1-.07.06A5.94,5.94,0,0,1,186.72,200Zm-5-1.78a12.27,12.27,0,0,0,2.73,1.32,8.94,8.94,0,0,0,2.8.27l5.41-14.55L186,173.7C183.35,182.37,181.86,197.18,181.76,198.18Z" transform="translate(-0.63 -79.28)" style="fill: #1a2e35"/>
        </g>
        <path d="M167.64,125.87s7.28,1.23,8.14,4.37l5.89,21.57s-3.7.67-5.41-1.05-5.95-15.87-5.95-15.87Z" transform="translate(-0.63 -79.28)" style="fill: #a9c2ff"/>
        <path d="M169.38,157.24c-5.2.34-14.33-.51-14.68-1.47-1.2-3.32-.35-4.36-1.35-9.44l2.51-7.06s-.41,7.86,1.9,9.93,9.49,4,10.62,5.72A6.6,6.6,0,0,1,169.38,157.24Z" transform="translate(-0.63 -79.28)" style="fill: #8eaff1"/>
        <g>
          <path d="M163.42,153.94s5.13-1.14,6-.69a11.78,11.78,0,0,1,3.1,2.69c.25.58-1.84-.44-2.52-.62a6.12,6.12,0,0,0-2.18.48,7.17,7.17,0,0,1-3.9.39Z" transform="translate(-0.63 -79.28)" style="fill: #fff"/>
          <path d="M165,156.38a4.43,4.43,0,0,1-1.1-.11.07.07,0,0,1-.06-.07l-.45-2.25a.08.08,0,0,1,.07-.1c.21,0,5.17-1.14,6-.68a11.94,11.94,0,0,1,3.14,2.73.19.19,0,0,1,0,.23c-.17.17-.77,0-1.75-.42-.34-.13-.67-.26-.86-.31a5.64,5.64,0,0,0-2,.44l-.1,0A8.81,8.81,0,0,1,165,156.38Zm-1-.26a7.57,7.57,0,0,0,3.8-.4l.1,0a5.58,5.58,0,0,1,2.13-.45,8.61,8.61,0,0,1,.88.32,5.3,5.3,0,0,0,1.56.47.1.1,0,0,0,0-.05,12.18,12.18,0,0,0-3.06-2.65c-.64-.35-4.33.35-5.81.68Z" transform="translate(-0.63 -79.28)" style="fill: #1a2e35"/>
        </g>
        <path d="M160,125.2s-6.88.42-9.27,3.75c-3.35,4.68-10,24.62-6.2,27.28,4.3,3,19.55.78,19.55.78s.51-2.37-.2-3.52-12.18-3-12.71-3.53,6.62-10.33,6.62-11.92S160,125.2,160,125.2Z" transform="translate(-0.63 -79.28)" style="fill: #a9c2ff"/>
        <g>
          <path d="M169.62,154.68a9.37,9.37,0,0,0,1.43,1.55,1,1,0,0,0,.58.12l-.72-1.3Z" transform="translate(-0.63 -79.28)" style="fill: #fff"/>
          <path d="M171.56,156.44a1.3,1.3,0,0,1-.55-.14,9.07,9.07,0,0,1-1.46-1.58.09.09,0,0,1,.1-.13l1.28.37a.1.1,0,0,1,0,0l.72,1.3a.11.11,0,0,1,0,.08s0,0-.06.05Zm-1.7-1.6a7.32,7.32,0,0,0,1.23,1.31,1.22,1.22,0,0,0,.4.12l-.64-1.14Z" transform="translate(-0.63 -79.28)" style="fill: #1a2e35"/>
        </g>
        <g>
          <path d="M169.38,153.25l3.12,1.52a.55.55,0,0,1-.52.2,7.75,7.75,0,0,1-1.35-.37Z" transform="translate(-0.63 -79.28)" style="fill: #fff"/>
          <path d="M172,155.06H172a7.14,7.14,0,0,1-1.38-.38l0,0-1.25-1.34a.09.09,0,0,1,0-.11.11.11,0,0,1,.11,0l3.12,1.52a.12.12,0,0,1,.05.05.09.09,0,0,1,0,.07A.68.68,0,0,1,172,155.06Zm-1.35-.54a7.45,7.45,0,0,0,1.31.36.57.57,0,0,0,.37-.09l-2.6-1.26Z" transform="translate(-0.63 -79.28)" style="fill: #1a2e35"/>
        </g>
      </g>
      <g>
        <g>
          <polygon points="170.42 79.07 195.13 79.07 202.56 60.59 177.89 60.59 170.42 79.07" style="fill: #1a2e35"/>
          <polygon points="195.42 78.35 162.79 78.35 162.79 79.07 195.13 79.07 195.42 78.35" style="fill: #1a2e35"/>
        </g>
        <path d="M189.52,149.11a.86.86,0,0,0-.84-1.18,1.68,1.68,0,0,0-1.51,1.18.86.86,0,0,0,.84,1.18A1.69,1.69,0,0,0,189.52,149.11Z" transform="translate(-0.63 -79.28)" style="fill: #e8f2fa"/>
      </g>
    </g>
    <path d="M374.09,370.83H1a.4.4,0,0,1-.4-.4v-.3a.4.4,0,0,1,.4-.4H374.09a.4.4,0,0,1,.4.4v.3A.4.4,0,0,1,374.09,370.83Z" transform="translate(-0.63 -79.28)" style="fill: #1a2e35"/>
    <g>
      <polygon points="190.47 231.2 205.89 221.17 195.87 221.7 190.47 231.2" style="fill: #231f20"/>
      <g style="clip-path: url(#f5f1f9bf-6b15-4e64-9815-baf9e2441037)">
        <polygon points="194.66 238.34 248.58 211.96 229.26 172.45 175.33 198.83 194.66 238.34" style="fill: url(#bb9452ba-ad98-4c98-a155-dc1f51c226c7)"/>
      </g>
      <g style="clip-path: url(#ea5bf253-bffe-40cb-ae1a-3f49e4d79773)">
        <polygon points="204.41 249.02 254.68 224.44 231.59 177.23 181.32 201.81 204.41 249.02" style="fill: url(#e0f90405-3946-4a46-bc0d-cc899253577a)"/>
      </g>
      <path d="M221.88,259a7.4,7.4,0,0,1,2.26-1.55,6.68,6.68,0,0,1,2.76-.57h13.87v-10.1h-13a17,17,0,0,0-6.73,1.35,17.22,17.22,0,0,0-9.23,9.22,17,17,0,0,0-1.35,6.73,16.75,16.75,0,0,0,1.35,6.7,17.24,17.24,0,0,0,6.27,7.59h0l22.69-7.15H226.9a6.68,6.68,0,0,1-2.76-.57,7.48,7.48,0,0,1-3.81-3.81,6.68,6.68,0,0,1-.57-2.76,6.89,6.89,0,0,1,.57-2.79,7.3,7.3,0,0,1,1.55-2.29" transform="translate(-0.63 -79.28)" style="fill: #cb07f4"/>
      <path d="M202.06,246.78l-8.89,22.36L185,248.87l-.15-.3-.72-1.79h-38v10.1h13.47v40.17l10.1-3.18v-37h8.42l10.1,24.44L185.19,289l11.55-3.64,15.42-38.58Z" transform="translate(-0.63 -79.28)" style="fill: #cb07f4"/>
    </g>
  </g>
</svg>
