
<svg version="1.1" id="Layer_1" xmlns="http://www.w3.org/2000/svg" xmlns:xlink="http://www.w3.org/1999/xlink" x="100px" y="100px"
	 viewBox="0 0 375.12 385.68" style="enable-background:new 0 0 375.12 385.68;" xml:space="preserve">
<style type="text/css">
	.st0{fill:#231F20;}
	.st1{clip-path:url(#SVGID_2_);fill:url(#SVGID_3_);}
	.st2{clip-path:url(#SVGID_5_);fill:url(#SVGID_6_);}
	.st3{fill:#CB07F4;}
</style>
<g>
	<polygon class="st0" points="179.74,297.35 230.62,264.25 197.55,265.99 	"/>
	<g>
		<defs>
			<polygon id="SVGID_1_" points="157.65,235.51 174.63,247.5 343.59,176.92 			"/>
		</defs>
		<clipPath id="SVGID_2_">
			<use xlink:href="#SVGID_1_"  style="overflow:visible;"/>
		</clipPath>
		
			<linearGradient id="SVGID_3_" gradientUnits="userSpaceOnUse" x1="-2026.3988" y1="749.0184" x2="-2025.3348" y2="749.0184" gradientTransform="matrix(134.0621 -65.5739 65.5739 134.0621 222719.7969 -233043.3438)">
			<stop  offset="0" style="stop-color:#F8D42C"/>
			<stop  offset="1" style="stop-color:#FA450B"/>
		</linearGradient>
		<polygon class="st1" points="193.55,320.89 371.45,233.88 307.69,103.54 129.8,190.55 		"/>
	</g>
	<g>
		<defs>
			<polygon id="SVGID_4_" points="312.18,196.08 197.54,265.99 213.03,275.69 249.46,298.49 328.35,196.6 343.59,176.92 			"/>
		</defs>
		<clipPath id="SVGID_5_">
			<use xlink:href="#SVGID_4_"  style="overflow:visible;"/>
		</clipPath>
		
			<linearGradient id="SVGID_6_" gradientUnits="userSpaceOnUse" x1="-2026.3988" y1="749.0312" x2="-2025.3348" y2="749.0312" gradientTransform="matrix(134.0621 -65.5739 65.5739 134.0621 222732.875 -233016.625)">
			<stop  offset="0" style="stop-color:#F8D42C"/>
			<stop  offset="1" style="stop-color:#FA450B"/>
		</linearGradient>
		<polygon class="st2" points="225.74,356.14 391.57,275.02 315.39,119.28 149.56,200.39 		"/>
	</g>
	<path class="st3" d="M281.28,127.51c2.14-2.15,4.63-3.86,7.44-5.11c2.81-1.26,5.84-1.89,9.1-1.89h45.76V87.19h-42.87
		c-7.85,0-15.26,1.48-22.22,4.45c-6.96,2.96-13.02,7.04-18.21,12.21c-5.18,5.19-9.26,11.26-12.22,18.22
		c-2.96,6.96-4.44,14.36-4.44,22.21c0,7.86,1.48,15.22,4.44,22.1c2.96,6.89,7.04,12.93,12.22,18.11c2.59,2.59,5.4,4.9,8.44,6.93h0
		l74.84-23.58l0.02-0.01h-45.76c-3.26,0-6.29-0.63-9.1-1.89c-2.82-1.26-5.3-2.96-7.44-5.1c-2.15-2.15-3.86-4.64-5.11-7.44
		c-1.25-2.82-1.89-5.85-1.89-9.11c0-3.25,0.63-6.33,1.89-9.21C277.43,132.17,279.13,129.65,281.28,127.51"/>
	<path class="st3" d="M215.91,87.19l-29.32,73.75l-26.88-66.87c-0.15-0.34-0.33-0.66-0.5-0.98l-2.39-5.9h-7.33h-23.55H31.53v33.32
		h44.43v132.5l33.32-10.5v-122h16.66h11.11l33.32,80.63l-10.13,25.31l38.11-12.01l50.87-127.26H215.91z"/>
</g>
</svg>
